PathFileType	4	(X/Y/Z)	C:/Users/opensim2020/Desktop/walking_exp_matlab/subject01_walking11_straight_03.trc	
DataRate	CameraRate	NumFrames	NumMarkers	Units	OrigDataRate	OrigDataStartFrame	OrigNumFrames	
100.00	100.00	7	44	mm	100.00	2870	338	
Frame#	Time	LFHD			RFHD			LBHD			RBHD			C7			T10			CLAV			STRN			RBAK			LSHO			LUPA			LELB			LFRM			LWRA			LWRB			LFIN			RSHO			RUPA			RELB			RFRM			RWRA			RWRB			RFIN			LASI			RASI			LPSI			RPSI			LTHI			LKNE			LTIB			LANK			LHEE			LTOE			RTHI			RKNE			RTIB			RANK			RHEE			RTOE			*39			*40			*41			*42			*43			
		X1	Y1	Z1	X2	Y2	Z2	X3	Y3	Z3	X4	Y4	Z4	X5	Y5	Z5	X6	Y6	Z6	X7	Y7	Z7	X8	Y8	Z8	X9	Y9	Z9	X10	Y10	Z10	X11	Y11	Z11	X12	Y12	Z12	X13	Y13	Z13	X14	Y14	Z14	X15	Y15	Z15	X16	Y16	Z16	X17	Y17	Z17	X18	Y18	Z18	X19	Y19	Z19	X20	Y20	Z20	X21	Y21	Z21	X22	Y22	Z22	X23	Y23	Z23	X24	Y24	Z24	X25	Y25	Z25	X26	Y26	Z26	X27	Y27	Z27	X28	Y28	Z28	X29	Y29	Z29	X30	Y30	Z30	X31	Y31	Z31	X32	Y32	Z32	X33	Y33	Z33	X34	Y34	Z34	X35	Y35	Z35	X36	Y36	Z36	X37	Y37	Z37	X38	Y38	Z38	X39	Y39	Z39	X40	Y40	Z40	X41	Y41	Z41	X42	Y42	Z42	X43	Y43	Z43	X44	Y44	Z44	

43	0.420	1475.78772	-616.74573	1680.73657	1584.96326	-586.24451	1690.60059	1501.22778	-713.08014	1605.23242	1617.51062	-682.95026	1613.82690	1523.85474	-700.89349	1430.10510	1526.61914	-730.62250	1138.45874	1521.46155	-553.93268	1370.90393	1509.01685	-508.21130	1214.23242	1596.52966	-749.73560	1233.84888	1362.46387	-614.12927	1404.41443	1273.54932	-636.28894	1221.23706	1270.28320	-645.16724	1070.25671	1242.42505	-601.09485	965.56915	1256.85693	-517.36353	854.57977	1232.39844	-571.28754	847.27899	1220.53821	-518.41119	781.90692	1673.07727	-620.34442	1391.61511	1770.00830	-675.47723	1189.21497	1772.18970	-669.96802	1064.47021	1802.37805	-633.95996	949.09393	1786.04248	-542.90100	840.12805	1822.94531	-588.37640	836.77545	1821.44373	-545.03601	761.93988	1406.13281	-566.88831	930.45844	1621.57971	-549.67175	930.87164	1471.68848	-748.66388	946.69257	1617.36353	-735.41418	948.76788	1332.36670	-570.89478	603.04169	1339.20898	-571.49048	469.70346	1345.37659	-715.07751	354.42548	1407.33020	-869.92139	207.69650	1471.06396	-912.09546	206.35435	1370.58423	-794.41064	81.89006	1670.16223	-580.76392	598.67188	1637.20996	-558.12488	442.47522	1644.07471	-606.46631	272.38501	1590.88232	-634.63318	70.19023	1544.60645	-687.33514	32.44963	1580.81201	-494.59415	32.95425	1566.57971	-610.65527	1719.39026	-3101.92529	1973.08020	1023.31689	-3140.79126	2012.50916	1022.10352						 
44	0.430	1476.56982	-611.09113	1680.89014	1585.71375	-580.43872	1690.79260	1502.07227	-707.44019	1605.56689	1618.33423	-677.24249	1614.15259	1524.80640	-695.60590	1430.39990	1527.61145	-725.54510	1138.78882	1522.17590	-548.72174	1370.98401	1509.70813	-503.15054	1214.31067	1597.47925	-744.65430	1234.20154	1363.22607	-609.15967	1404.58142	1274.47937	-631.92603	1221.43640	1271.43335	-641.55841	1070.35925	1243.37854	-598.67035	965.55267	1257.69739	-515.88782	853.75458	1233.15796	-569.92670	846.97137	1221.26184	-517.68970	781.04004	1673.86328	-614.97723	1391.66125	1771.08020	-669.53979	1189.23926	1773.47424	-663.54907	1064.44983	1803.42432	-626.52557	949.32709	1786.75720	-534.70978	841.09210	1823.81885	-580.00842	837.38025	1822.12329	-536.16870	762.82465	1406.88428	-562.08081	931.00024	1622.33093	-544.96240	930.71039	1472.13232	-743.83307	946.97876	1617.79578	-730.75055	948.72052	1332.67188	-562.14447	604.43384	1339.55774	-560.75458	471.37799	1346.00952	-703.67975	355.34735	1407.92285	-857.24170	207.53517	1471.64233	-899.74414	205.04765	1369.99744	-779.73163	84.06056	1670.18640	-577.33765	598.22137	1637.33228	-555.23260	442.14090	1643.99451	-604.45380	272.19513	1590.77185	-634.35345	70.19092	1544.60059	-687.83594	33.29077	1580.93347	-494.42648	33.10311	1567.31238	-604.95929	1719.50525	-3101.95996	1972.98828	1024.00037	-3140.64453	2012.48364	1021.96283						 
45	0.440	1477.23804	-605.68549	1681.25659	1586.36768	-574.71613	1690.93652	1502.78931	-701.99469	1605.98486	1619.09436	-671.61041	1614.45972	1525.68188	-690.27472	1430.63672	1528.55444	-720.55444	1139.12109	1522.83276	-543.44757	1371.04932	1510.30151	-498.14148	1214.33203	1598.37927	-739.59576	1234.51685	1363.96313	-604.14691	1404.82275	1275.33911	-627.58759	1221.58069	1272.60461	-637.98840	1070.65930	1244.34485	-596.20593	965.52869	1258.20471	-514.36572	852.89124	1233.91052	-568.57959	846.75287	1221.89417	-517.07428	780.21307	1674.61719	-609.58063	1391.67566	1772.10803	-663.67053	1189.22107	1774.56885	-657.20099	1064.40002	1804.36511	-619.24329	949.54852	1787.34875	-526.60516	842.06714	1824.45837	-571.81091	837.92590	1822.71423	-527.39319	763.79938	1407.52417	-557.36450	931.54956	1623.03296	-540.33136	930.58478	1472.51831	-739.03699	947.32422	1618.27527	-726.13306	948.84412	1333.11035	-553.48199	605.91364	1340.02954	-550.20483	472.84012	1346.56897	-692.23877	356.14096	1408.11084	-844.15381	206.50681	1471.56348	-887.17371	203.08376	1369.91858	-763.73022	84.95084	1670.32764	-573.73938	597.89923	1637.06702	-552.61694	441.54263	1643.97400	-602.44171	272.03305	1590.79663	-634.30054	70.57705	1544.65222	-687.78314	33.45032	1580.88660	-494.32245	33.09420	1568.02185	-599.09528	1719.75586	-3101.92383	1973.10168	1023.47223	-3140.79419	2012.53381	1022.04401						 
46	0.450	1477.86084	-599.85974	1681.28259	1586.95313	-568.99292	1691.09167	1503.49951	-696.46198	1606.27295	1619.77344	-665.98401	1614.74280	1526.47754	-685.04169	1430.87585	1529.49182	-715.56439	1139.39307	1523.44531	-538.22766	1371.12439	1510.90710	-493.08575	1214.41687	1599.24158	-734.53522	1234.85632	1364.64856	-599.15527	1405.04443	1276.13623	-623.30157	1221.82739	1273.66675	-634.54523	1070.95898	1245.22534	-593.81488	965.58661	1258.64490	-513.00177	852.03815	1234.65881	-567.22156	846.43500	1222.63257	-516.32300	779.43652	1675.33093	-604.20294	1391.78003	1773.03625	-657.90631	1189.20593	1775.56409	-651.01721	1064.31177	1805.14905	-612.02173	949.77020	1787.81665	-518.53870	843.03009	1825.06775	-563.63599	838.51532	1823.10352	-518.63037	764.68024	1408.19666	-552.72534	932.17639	1623.73181	-535.62616	930.46704	1472.87366	-734.26880	947.67261	1618.52063	-721.38989	948.73029	1333.57703	-544.87549	607.30774	1340.63696	-539.76093	474.49219	1347.10205	-680.72852	356.58081	1407.93787	-830.57965	204.75356	1471.29919	-874.03253	200.06462	1369.99731	-747.31940	85.49638	1670.31836	-570.14941	597.50098	1637.05139	-549.94489	441.18478	1643.91919	-600.70038	271.90192	1590.62231	-633.87671	70.29386	1544.58484	-687.73621	33.61978	1580.85022	-494.21741	33.06811	1568.64893	-593.34509	1719.98340	-3101.85547	1973.19336	1023.60895	-3140.65991	2012.56848	1021.99762						 
47	0.460	1478.43909	-594.28937	1681.45923	1587.44287	-563.41180	1691.26782	1504.19470	-690.89478	1606.47363	1620.35400	-660.40448	1614.99756	1527.29028	-679.71698	1431.19336	1530.45471	-710.66309	1139.77966	1523.94263	-533.04663	1371.15417	1511.40686	-488.12228	1214.40881	1600.05176	-729.48566	1235.13513	1365.31348	-594.12695	1405.23669	1276.84607	-619.19958	1221.99060	1274.68372	-631.11090	1071.26318	1246.04712	-591.44904	965.56390	1259.45166	-511.50732	851.33679	1235.39087	-565.82159	846.31427	1223.24451	-515.50244	778.71967	1676.06641	-598.81360	1391.85425	1773.88757	-652.21436	1189.15820	1776.43188	-644.92285	1064.24707	1805.80920	-604.97430	949.93738	1788.12549	-510.61395	844.03308	1825.52673	-555.49872	839.13660	1823.33240	-509.96164	765.62103	1408.79492	-548.07544	932.73047	1624.36768	-530.87988	930.35297	1473.20605	-729.61676	948.13928	1618.80090	-716.81476	948.95807	1334.06689	-536.43518	608.72772	1341.36572	-529.63684	476.02304	1347.53943	-668.96527	356.70346	1407.77209	-816.60010	202.19324	1470.88257	-860.57880	196.52505	1369.97388	-730.28906	85.38137	1670.31860	-566.70367	597.11304	1637.10791	-547.52948	440.74286	1643.84229	-599.19067	271.63925	1590.51758	-633.70972	70.34444	1544.63000	-687.25555	33.13108	1580.78296	-494.18979	33.01786	1569.05957	-587.87817	1720.07910	-3102.13208	1972.90894	1023.83850	-3140.61890	2012.61389	1022.16632						 
48	0.470	1478.84387	-588.87720	1681.54675	1587.90564	-557.86444	1691.44421	1504.71423	-685.36652	1606.58911	1620.89734	-654.86676	1615.21875	1527.99268	-674.35028	1431.36194	1531.31592	-705.74109	1140.05884	1524.56677	-527.73846	1371.27112	1511.93298	-483.14026	1214.41431	1600.87756	-724.39709	1235.45642	1365.84949	-589.07562	1405.36963	1277.49744	-615.01080	1222.26965	1275.59680	-627.76355	1071.51318	1246.77747	-589.06567	965.59851	1259.89355	-509.99048	850.68884	1236.07898	-564.38892	846.10773	1223.77905	-514.67633	778.19708	1676.72021	-593.44958	1391.89661	1774.63025	-646.55188	1189.07837	1777.14038	-638.92676	1064.15015	1806.32593	-597.97699	950.08124	1788.27673	-502.73621	844.97900	1825.78931	-547.52667	839.74634	1823.39771	-501.35934	766.55267	1409.22241	-543.47412	933.26892	1624.86243	-526.31061	930.22937	1473.52173	-724.97168	948.54584	1619.15601	-712.37274	949.37073	1334.59436	-527.93817	610.11023	1342.17017	-519.56049	477.66702	1347.82959	-657.07190	356.39749	1407.56958	-802.27759	199.02306	1470.47876	-846.64520	192.06427	1369.54224	-712.76691	85.52272	1670.42883	-563.29376	596.86523	1637.16003	-545.22687	440.29825	1643.90771	-597.96423	271.47916	1590.46887	-633.51318	70.34825	1544.58508	-687.24530	33.29356	1580.86072	-494.03683	33.19250	1569.51001	-582.22577	1720.30151	-3101.94800	1973.09229	1023.90393	-3140.64453	2012.53357	1021.95898						 
49	0.480	1479.25500	-583.50201	1681.62488	1588.25159	-552.39459	1691.62402	1505.22461	-679.89624	1606.66052	1621.36133	-649.35663	1615.35474	1528.68030	-669.02728	1431.71899	1532.04443	-700.77386	1140.37634	1525.08020	-522.48492	1371.31238	1512.36182	-478.22031	1214.37671	1601.64124	-719.33411	1235.79114	1366.44189	-584.00085	1405.53357	1278.09949	-610.85651	1222.46460	1276.49915	-624.43280	1071.82629	1247.47656	-586.66101	965.62872	1260.51501	-508.40518	850.16382	1236.67554	-562.90314	845.98602	1224.38257	-513.67468	777.51129	1677.30212	-588.06128	1391.95178	1775.29883	-640.91766	1189.00403	1777.79248	-632.96191	1064.03589	1806.75073	-591.06915	950.21094	1788.24451	-494.99374	845.94659	1825.85364	-539.61676	840.18903	1823.34680	-492.73178	767.55701	1409.64856	-538.96735	933.79425	1625.23083	-521.73651	930.02332	1473.82764	-720.37061	948.95410	1619.26196	-707.46173	949.24078	1335.09680	-519.48077	611.54596	1342.99292	-509.80472	479.19513	1348.06604	-644.96265	355.41370	1407.31091	-787.35443	195.10384	1470.01526	-832.02271	186.67845	1369.07202	-694.38452	84.67863	1670.38232	-560.07294	596.48004	1637.02795	-543.12549	439.81442	1643.90161	-596.82806	271.38333	1590.45410	-633.28943	70.46207	1544.42651	-687.69708	33.90396	1580.80676	-493.98605	33.13688	1569.87183	-576.75073	1720.42249	-3102.01294	1973.08936	1023.42596	-3140.72217	2012.53430	1021.93134						 
